<svg width="20" height="19" viewBox="0 0 20 19" fill="none" xmlns="http://www.w3.org/2000/svg">
<path d="M13.9286 7.4433L-3.25357e-07 7.4433L-5.05159e-07 11.5567L13.9286 11.5567L14.1071 11.9485C14.1071 11.9485 14.1071 12.1443 13.5714 12.5361C13.0357 12.9278 11.25 13.1237 10.5357 15.0825C9.82143 17.0412 10.5357 19 10.5357 19L14.4643 19C14.4643 19 14.2857 16.2577 15.1786 14.1031C16.0714 11.9485 20 11.5567 20 11.5567L20 9.59794L20 9.40206L20 7.4433C20 7.4433 16.0714 7.05155 15.1786 4.89691C14.2857 2.74227 14.4643 -2.41974e-07 14.4643 -2.41974e-07L10.5357 -4.13697e-07C10.5357 -4.13697e-07 9.82143 1.95876 10.5357 3.91753C11.25 5.87629 13.0357 6.07216 13.5714 6.46392C14.1071 6.85567 14.1071 7.05155 14.1071 7.05155L13.9286 7.4433Z" fill="#DC25FD"/>
</svg>
