<svg width="52" height="46" viewBox="0 0 52 46" fill="none" xmlns="http://www.w3.org/2000/svg">
<path d="M36.2143 18.0206L3.02699e-06 18.0206L2.59168e-06 27.9794L36.2143 27.9794L36.6786 28.9278C36.6786 28.9278 36.6786 29.4021 35.2857 30.3505C33.8929 31.299 29.25 31.7732 27.3929 36.5155C25.5357 41.2577 27.3929 46 27.3929 46L37.6071 46C37.6071 46 37.1429 39.3608 39.4643 34.1443C41.7857 28.9278 52 27.9794 52 27.9794L52 23.2371L52 22.7629L52 18.0206C52 18.0206 41.7857 17.0722 39.4643 11.8557C37.1429 6.63917 37.6071 -6.29132e-07 37.6071 -6.29132e-07L27.3929 -1.07561e-06C27.3929 -1.07561e-06 25.5357 4.74227 27.3929 9.48454C29.25 14.2268 33.8929 14.701 35.2857 15.6495C36.6786 16.5979 36.6786 17.0722 36.6786 17.0722L36.2143 18.0206Z" fill="#24D43D"/>
</svg>
